<svg id="图层_1" data-name="图层 1" xmlns="http://www.w3.org/2000/svg" viewBox="0 0 60 60"><defs><style>.cls-1{fill:#1c8ee4;}.cls-2{fill:#fff;}</style></defs><path class="cls-1" d="M29.83,3.11h0A23.39,23.39,0,0,1,53.22,26.5v17a6.89,6.89,0,0,1-6.89,6.89h-16A23.89,23.89,0,0,1,6.44,26.5v0A23.39,23.39,0,0,1,29.83,3.11Z" transform="translate(27.65 -13.26) rotate(45)"/><path class="cls-1" d="M22.72,18.91s-2,3-2,3.52c0,0,12.06.42,17.28,0,0,0-1.55-3.3-2.22-3.57A49.43,49.43,0,0,0,22.72,18.91Z"/><path class="cls-1" d="M35.13,25.84a15.72,15.72,0,0,0,2,.95,19.58,19.58,0,0,0,3.48-.38.51.51,0,0,0,.19-.79c-.12-.22-.19-.89-.82-.86A27.15,27.15,0,0,0,35.13,25.84Z"/><path class="cls-1" d="M23.64,25.84a15.1,15.1,0,0,1-2,.95,19.58,19.58,0,0,1-3.48-.38.51.51,0,0,1-.19-.79c.13-.22.19-.89.82-.86A27.15,27.15,0,0,1,23.64,25.84Z"/><rect class="cls-2" x="15.78" y="24.53" width="27.59" height="10.68" rx="2.12"/><path class="cls-2" d="M40.87,25.57H18.5l2.66-7.35a2.16,2.16,0,0,1,2-1.42h13a2.15,2.15,0,0,1,2,1.42Z"/><path class="cls-1" d="M21.78,22.38l1.08-3a.9.9,0,0,1,.84-.59h12a.89.89,0,0,1,.83.59l1.08,3a.88.88,0,0,1-.83,1.19H22.61A.89.89,0,0,1,21.78,22.38Z"/><rect class="cls-2" x="17.84" y="31.88" width="5.09" height="7.42" rx="2.38"/><rect class="cls-2" x="35.91" y="31.88" width="5.09" height="7.42" rx="2.38"/><circle class="cls-1" cx="21.36" cy="29.19" r="1.94"/><circle class="cls-1" cx="37.26" cy="29.19" r="1.94"/></svg>